<svg xmlns="http://www.w3.org/2000/svg" aria-hidden="true" style="position:absolute;width:0;height:0;overflow:hidden">
  <defs>
    <symbol id="icon-scloll2" viewBox="0 0 55 32">
      <path fill="#fff" d="M1.091 25.309 25.527.8c.291-.291.606-.496.945-.617.339-.122.703-.183 1.091-.183s.752.061 1.091.183c.339.12.655.326.946.617l24.509 24.509c.679.679 1.018 1.527 1.018 2.545s-.364 1.891-1.091 2.618c-.727.727-1.576 1.091-2.545 1.091s-1.818-.364-2.545-1.091L27.564 9.09 6.182 30.472c-.679.679-1.515 1.018-2.508 1.018-.995 0-1.856-.364-2.583-1.091S0 28.823 0 27.854c0-.97.364-1.818 1.091-2.545z" style="fill:var(--color1, #fff)"/>
    </symbol>
  </defs>
</svg>
